<?xml version="1.0" encoding="UTF-8" standalone="no"?>
<!-- Created with Inkscape (http://www.inkscape.org/) -->

<svg
    width="31.514519mm"
    height="25.244179mm"
    viewBox="0 0 31.514519 25.244179"
    version="1.1"
    id="svg1231"
    inkscape:export-filename="logo.svg"
    inkscape:export-xdpi="96"
    inkscape:export-ydpi="96"
    xmlns:inkscape="http://www.inkscape.org/namespaces/inkscape"
    xmlns:sodipodi="http://sodipodi.sourceforge.net/DTD/sodipodi-0.dtd"
    xmlns="http://www.w3.org/2000/svg"
    xmlns:svg="http://www.w3.org/2000/svg">
    <sodipodi:namedview
        id="namedview1233"
        pagecolor="#ffffff"
        bordercolor="#000000"
        borderopacity="0.25"
        inkscape:showpageshadow="2"
        inkscape:pageopacity="0.0"
        inkscape:pagecheckerboard="0"
        inkscape:deskcolor="#d1d1d1"
        inkscape:document-units="mm"
        showgrid="false"
        inkscape:zoom="0.71535494"
        inkscape:cx="397.00572"
        inkscape:cy="562.65775"
        inkscape:window-width="1920"
        inkscape:window-height="1080"
        inkscape:window-x="0"
        inkscape:window-y="-30"
        inkscape:window-maximized="1"
        inkscape:current-layer="layer1" />
    <defs
        id="defs1228">
        <clipPath
            clipPathUnits="userSpaceOnUse"
            id="clipPath588">
            <path
                d="M 0,500 H 500 V 0 H 0 Z"
                id="path586" />
        </clipPath>
        <clipPath
            clipPathUnits="userSpaceOnUse"
            id="clipPath600">
            <path
                d="m 323.444,408.512 h 6.348 v -3.767 h -6.348 z"
                id="path598" />
        </clipPath>
        <clipPath
            clipPathUnits="userSpaceOnUse"
            id="clipPath616">
            <path
                d="m 329.792,412.279 h 5.174 v -3.767 h -5.174 z"
                id="path614" />
        </clipPath>
        <clipPath
            clipPathUnits="userSpaceOnUse"
            id="clipPath636">
            <path
                d="m 403.912,412.279 h 6.348 v -3.767 h -6.348 z"
                id="path634" />
        </clipPath>
        <clipPath
            clipPathUnits="userSpaceOnUse"
            id="clipPath652">
            <path
                d="m 398.738,408.512 h 5.174 v -3.767 h -5.174 z"
                id="path650" />
        </clipPath>
    </defs>
    <g
        inkscape:label="Layer 1"
        inkscape:groupmode="layer"
        id="layer1"
        transform="translate(-71.530412,-80.583387)">
        <g
            id="g582"
            transform="matrix(0.35277777,0,0,-0.35277777,-42.129506,237.31938)">
            <g
                id="g584"
                clip-path="url(#clipPath588)">
                <g
                    id="g590"
                    transform="translate(345.2586,435.1967)">
                    <path
                        d="m 0,0 -16.722,-16.722 c -0.66,-0.66 -1.024,-1.537 -1.024,-2.47 0,-0.934 0.364,-1.811 1.024,-2.471 l 1.255,-1.255 L 0,-7.452 Z m 2.664,-62.464 c -0.682,0 -1.363,0.26 -1.884,0.78 l -21.268,21.268 c -1.667,1.666 -2.585,3.882 -2.585,6.238 0,2.357 0.918,4.572 2.585,6.238 l 1.255,1.255 -1.255,1.255 c -1.667,1.666 -2.585,3.881 -2.585,6.238 0,2.356 0.918,4.571 2.585,6.237 L 0.78,8.313 C 1.541,9.075 2.687,9.304 3.684,8.891 4.679,8.479 5.327,7.508 5.327,6.431 V -8.555 c 0,-0.707 -0.28,-1.384 -0.78,-1.883 l -16.247,-16.247 8.946,-8.946 c 1.226,-1.226 2.924,-1.828 4.645,-1.651 1.725,0.178 3.259,1.111 4.212,2.56 l 21.124,32.18 c 0.807,1.23 2.458,1.573 3.688,0.765 1.23,-0.807 1.572,-2.458 0.765,-3.688 l -21.124,-32.18 c -1.835,-2.795 -4.794,-4.595 -8.121,-4.936 -3.324,-0.34 -6.59,0.819 -8.956,3.183 l -8.946,8.946 -1.255,-1.255 c -0.66,-0.66 -1.024,-1.537 -1.024,-2.471 0,-0.933 0.364,-1.81 1.024,-2.47 L 4.547,-57.917 c 1.041,-1.04 1.041,-2.727 0,-3.767 -0.52,-0.52 -1.201,-0.78 -1.883,-0.78"
                        style="fill:#ff8800;fill-opacity:1;fill-rule:nonzero;stroke:none"
                        id="path592" />
                </g>
                <g
                    id="g594">
                    <g
                        id="g596" />
                    <g
                        id="g608">
                        <g
                            clip-path="url(#clipPath600)"
                            opacity="0.199997"
                            id="g606">
                            <g
                                transform="translate(329.7918,404.7445)"
                                id="g604">
                                <path
                                    d="M 0,0 -3.767,3.767 -5.021,2.512 C -5.541,1.993 -5.979,1.415 -6.348,0.801 Z"
                                    style="fill:#000000;fill-opacity:1;fill-rule:nonzero;stroke:none"
                                    id="path602" />
                            </g>
                        </g>
                    </g>
                </g>
                <g
                    id="g610">
                    <g
                        id="g612" />
                    <g
                        id="g624">
                        <g
                            clip-path="url(#clipPath616)"
                            opacity="0.199997"
                            id="g622">
                            <g
                                transform="translate(333.5584,408.5116)"
                                id="g620">
                                <path
                                    d="m 0,0 1.407,1.407 -5.174,2.36 z"
                                    style="fill:#000000;fill-opacity:1;fill-rule:nonzero;stroke:none"
                                    id="path618" />
                            </g>
                        </g>
                    </g>
                </g>
                <g
                    id="g626"
                    transform="translate(388.4451,381.827)">
                    <path
                        d="m 0,0 16.723,16.722 c 0.659,0.66 1.023,1.537 1.023,2.47 0,0.934 -0.364,1.811 -1.023,2.471 L 15.467,22.918 0,7.452 Z m -2.663,62.464 c 0.681,0 1.362,-0.26 1.883,-0.78 L 20.488,40.416 c 1.667,-1.666 2.585,-3.882 2.585,-6.238 0,-2.357 -0.918,-4.572 -2.585,-6.238 l -1.254,-1.255 1.254,-1.255 c 1.667,-1.666 2.585,-3.881 2.585,-6.238 0,-2.356 -0.918,-4.571 -2.585,-6.237 L -0.78,-8.314 c -0.761,-0.762 -1.906,-0.99 -2.903,-0.577 -0.996,0.412 -1.644,1.383 -1.644,2.46 V 8.555 c 0,0.707 0.281,1.384 0.78,1.883 L 11.7,26.685 2.755,35.631 c -1.227,1.226 -2.925,1.828 -4.645,1.651 -1.725,-0.178 -3.26,-1.111 -4.213,-2.56 L -27.227,2.542 c -0.806,-1.23 -2.458,-1.573 -3.688,-0.765 -1.23,0.807 -1.571,2.458 -0.765,3.688 l 21.124,32.18 c 1.835,2.795 4.794,4.595 8.121,4.936 3.324,0.34 6.591,-0.819 8.956,-3.183 l 8.946,-8.946 1.256,1.255 c 0.659,0.66 1.023,1.538 1.023,2.471 0,0.933 -0.364,1.81 -1.023,2.47 l -21.27,21.269 c -1.04,1.04 -1.04,2.727 0,3.767 0.521,0.52 1.202,0.78 1.884,0.78"
                        style="fill:#ff8800;fill-opacity:1;fill-rule:nonzero;stroke:none"
                        id="path628" />
                </g>
                <g
                    id="g630">
                    <g
                        id="g632" />
                    <g
                        id="g644">
                        <g
                            clip-path="url(#clipPath636)"
                            opacity="0.199997"
                            id="g642">
                            <g
                                transform="translate(403.9119,412.2792)"
                                id="g640">
                                <path
                                    d="m 0,0 3.768,-3.767 1.253,1.255 c 0.521,0.519 0.958,1.097 1.327,1.711 z"
                                    style="fill:#000000;fill-opacity:1;fill-rule:nonzero;stroke:none"
                                    id="path638" />
                            </g>
                        </g>
                    </g>
                </g>
                <g
                    id="g646">
                    <g
                        id="g648" />
                    <g
                        id="g660">
                        <g
                            clip-path="url(#clipPath652)"
                            opacity="0.199997"
                            id="g658">
                            <g
                                transform="translate(400.1453,408.5121)"
                                id="g656">
                                <path
                                    d="m 0,0 -1.407,-1.407 5.174,-2.36 z"
                                    style="fill:#000000;fill-opacity:1;fill-rule:nonzero;stroke:none"
                                    id="path654" />
                            </g>
                        </g>
                    </g>
                </g>
            </g>
        </g>
    </g>
</svg>
